<svg xmlns="http://www.w3.org/2000/svg" shape-rendering="geometricPrecision" text-rendering="geometricPrecision" image-rendering="optimizeQuality" fill-rule="evenodd" clip-rule="evenodd" viewBox="0 0 492 512.14"><path d="M169.28 262.03c153.59 11.89 145.6-75.49 322.72-117.27C366.3 36.78 268.32 110.2 169.28 23.8v-2.79c0-11.6-9.41-21.01-21.01-21.01-11.6 0-21.01 9.41-21.01 21.01V399.3c0 11.6 9.41 21.01 21.01 21.01 11.6 0 21.01-9.41 21.01-21.01V262.03zm41.08 60.37c22.35 2.82 44.63 13.66 60.84 30 15.78 15.92 26.09 37 26.09 61.29 0 15.75-5.76 31.07-16.31 44.8-9.42 12.25-22.83 23.3-39.35 32.09-12.77 6.79-27.59 12.33-44.01 16.08-15.36 3.51-31.94 5.48-49.35 5.48-16.23 0-31.74-1.71-46.19-4.77-15.48-3.28-29.54-8.11-41.83-14.05C34 480.61 17.13 463.58 8.11 445.17c-7.83-15.99-9.77-32.84-6.77-48.96 2.88-15.55 10.38-30.1 21.55-42.15 14.79-15.94 36.28-27.68 62-31.31l4.07 37.3c-18.14 2.57-32.95 10.48-42.84 21.14-6.31 6.81-10.49 14.65-11.98 22.69-1.38 7.47-.41 15.43 3.37 23.15 5.59 11.42 17.15 22.52 35.99 31.64 10.26 4.96 21.95 8.98 34.75 11.7 12.19 2.58 25.61 4.02 40.02 4.02 15.47 0 29.79-1.65 42.66-4.6 13.63-3.11 25.89-7.68 36.4-13.27 12.28-6.53 21.92-14.33 28.32-22.66 5.2-6.77 8.04-13.69 8.04-20.17 0-12.74-5.85-24.24-14.8-33.27-11.06-11.15-26.52-18.58-42.2-20.56l3.67-37.46z"/></svg>